<?xml version="1.0" encoding="UTF-8" standalone="no"?><svg xmlns="http://www.w3.org/2000/svg" xmlns:xlink="http://www.w3.org/1999/xlink" contentStyleType="text/css" height="1691px" preserveAspectRatio="none" style="width:1131px;height:1691px;background:#FFFFFF;" version="1.1" viewBox="0 0 1131 1691" width="1131px" zoomAndPan="magnify"><defs/><g><rect fill="none" height="26.2969" id="_title" style="stroke:none;stroke-width:1.0;" width="345" x="389" y="10"/><text fill="#000000" font-family="sans-serif" font-size="14" font-weight="bold" lengthAdjust="spacing" textLength="335" x="394" y="27.9951">UniRide Core Flow - Post Ride ➝ Book Seat</text><rect fill="#FFFFFF" height="249.3281" style="stroke:#181818;stroke-width:1.0;" width="10" x="316" y="192.8594"/><rect fill="#FFFFFF" height="145.6641" style="stroke:#181818;stroke-width:1.0;" width="10" x="316" y="659.1172"/><rect fill="#FFFFFF" height="145.6641" style="stroke:#181818;stroke-width:1.0;" width="10" x="316" y="877.0469"/><rect fill="#FFFFFF" height="243.1953" style="stroke:#181818;stroke-width:1.0;" width="10" x="316" y="1094.9766"/><rect fill="#FFFFFF" height="1291.5156" style="stroke:#181818;stroke-width:1.0;" width="10" x="615" y="310.5234"/><rect fill="#FFFFFF" height="913.7891" style="stroke:#181818;stroke-width:1.0;" width="10" x="620" y="688.25"/><rect fill="#FFFFFF" height="695.8594" style="stroke:#181818;stroke-width:1.0;" width="10" x="625" y="906.1797"/><rect fill="#FFFFFF" height="477.9297" style="stroke:#181818;stroke-width:1.0;" width="10" x="630" y="1124.1094"/><rect fill="#FFFFFF" height="1247.25" style="stroke:#181818;stroke-width:1.0;" width="10" x="924" y="354.7891"/><rect fill="#FFFFFF" height="1059.4531" style="stroke:#181818;stroke-width:1.0;" width="10" x="929" y="542.5859"/><rect fill="#FFFFFF" height="884.6563" style="stroke:#181818;stroke-width:1.0;" width="10" x="934" y="717.3828"/><rect fill="#FFFFFF" height="666.7266" style="stroke:#181818;stroke-width:1.0;" width="10" x="939" y="935.3125"/><rect fill="#FFFFFF" height="448.7969" style="stroke:#181818;stroke-width:1.0;" width="10" x="944" y="1153.2422"/><rect fill="#FFFFFF" height="351.2656" style="stroke:#181818;stroke-width:1.0;" width="10" x="949" y="1250.7734"/><rect fill="#FFFFFF" height="96.3984" style="stroke:#181818;stroke-width:1.0;" width="10" x="1042" y="1505.6406"/><rect fill="#FFFFFF" height="38.1328" style="stroke:#181818;stroke-width:1.0;" width="10" x="1047" y="1563.9063"/><rect fill="none" height="237" style="stroke:#000000;stroke-width:1.5;" width="924" x="51" y="1197.375"/><line style="stroke:#181818;stroke-width:0.5;stroke-dasharray:5.0,5.0;" x1="28" x2="28" y1="118.5938" y2="1611.0391"/><line style="stroke:#181818;stroke-width:0.5;stroke-dasharray:5.0,5.0;" x1="82" x2="82" y1="118.5938" y2="1611.0391"/><line style="stroke:#181818;stroke-width:0.5;stroke-dasharray:5.0,5.0;" x1="320.5" x2="320.5" y1="118.5938" y2="1611.0391"/><line style="stroke:#181818;stroke-width:0.5;stroke-dasharray:5.0,5.0;" x1="619.5" x2="619.5" y1="118.5938" y2="1611.0391"/><line style="stroke:#181818;stroke-width:0.5;stroke-dasharray:5.0,5.0;" x1="929" x2="929" y1="118.5938" y2="1611.0391"/><line style="stroke:#181818;stroke-width:0.5;stroke-dasharray:5.0,5.0;" x1="1047" x2="1047" y1="118.5938" y2="1611.0391"/><text fill="#000000" font-family="sans-serif" font-size="14" lengthAdjust="spacing" textLength="40" x="5" y="115.292">Driver</text><ellipse cx="28" cy="50.7969" fill="#E2E2F0" rx="8" ry="8" style="stroke:#181818;stroke-width:0.5;"/><path d="M28,58.7969 L28,85.7969 M15,66.7969 L41,66.7969 M28,85.7969 L15,100.7969 M28,85.7969 L41,100.7969 " fill="none" style="stroke:#181818;stroke-width:0.5;"/><text fill="#000000" font-family="sans-serif" font-size="14" lengthAdjust="spacing" textLength="40" x="5" y="1623.0342">Driver</text><ellipse cx="28" cy="1634.8359" fill="#E2E2F0" rx="8" ry="8" style="stroke:#181818;stroke-width:0.5;"/><path d="M28,1642.8359 L28,1669.8359 M15,1650.8359 L41,1650.8359 M28,1669.8359 L15,1684.8359 M28,1669.8359 L41,1684.8359 " fill="none" style="stroke:#181818;stroke-width:0.5;"/><text fill="#000000" font-family="sans-serif" font-size="14" lengthAdjust="spacing" textLength="36" x="61" y="115.292">Rider</text><ellipse cx="82" cy="50.7969" fill="#E2E2F0" rx="8" ry="8" style="stroke:#181818;stroke-width:0.5;"/><path d="M82,58.7969 L82,85.7969 M69,66.7969 L95,66.7969 M82,85.7969 L69,100.7969 M82,85.7969 L95,100.7969 " fill="none" style="stroke:#181818;stroke-width:0.5;"/><text fill="#000000" font-family="sans-serif" font-size="14" lengthAdjust="spacing" textLength="36" x="61" y="1623.0342">Rider</text><ellipse cx="82" cy="1634.8359" fill="#E2E2F0" rx="8" ry="8" style="stroke:#181818;stroke-width:0.5;"/><path d="M82,1642.8359 L82,1669.8359 M69,1650.8359 L95,1650.8359 M82,1669.8359 L69,1684.8359 M82,1669.8359 L95,1684.8359 " fill="none" style="stroke:#181818;stroke-width:0.5;"/><rect fill="#E2E2F0" height="30.2969" rx="2.5" ry="2.5" style="stroke:#181818;stroke-width:0.5;" width="125" x="258.5" y="87.2969"/><text fill="#000000" font-family="sans-serif" font-size="14" lengthAdjust="spacing" textLength="111" x="265.5" y="107.292">UniRide App (UI)</text><rect fill="#E2E2F0" height="30.2969" rx="2.5" ry="2.5" style="stroke:#181818;stroke-width:0.5;" width="125" x="258.5" y="1610.0391"/><text fill="#000000" font-family="sans-serif" font-size="14" lengthAdjust="spacing" textLength="111" x="265.5" y="1630.0342">UniRide App (UI)</text><rect fill="#E2E2F0" height="30.2969" rx="2.5" ry="2.5" style="stroke:#181818;stroke-width:0.5;" width="123" x="558.5" y="87.2969"/><text fill="#000000" font-family="sans-serif" font-size="14" lengthAdjust="spacing" textLength="109" x="565.5" y="107.292">Backend Server</text><rect fill="#E2E2F0" height="30.2969" rx="2.5" ry="2.5" style="stroke:#181818;stroke-width:0.5;" width="123" x="558.5" y="1610.0391"/><text fill="#000000" font-family="sans-serif" font-size="14" lengthAdjust="spacing" textLength="109" x="565.5" y="1630.0342">Backend Server</text><text fill="#000000" font-family="sans-serif" font-size="14" lengthAdjust="spacing" textLength="66" x="893" y="115.292">Database</text><path d="M911,66.2969 C911,56.2969 929,56.2969 929,56.2969 C929,56.2969 947,56.2969 947,66.2969 L947,92.2969 C947,102.2969 929,102.2969 929,102.2969 C929,102.2969 911,102.2969 911,92.2969 L911,66.2969 " fill="#E2E2F0" style="stroke:#181818;stroke-width:1.5;"/><path d="M911,66.2969 C911,76.2969 929,76.2969 929,76.2969 C929,76.2969 947,76.2969 947,66.2969 " fill="none" style="stroke:#181818;stroke-width:1.5;"/><text fill="#000000" font-family="sans-serif" font-size="14" lengthAdjust="spacing" textLength="66" x="893" y="1623.0342">Database</text><path d="M911,1636.3359 C911,1626.3359 929,1626.3359 929,1626.3359 C929,1626.3359 947,1626.3359 947,1636.3359 L947,1662.3359 C947,1672.3359 929,1672.3359 929,1672.3359 C929,1672.3359 911,1672.3359 911,1662.3359 L911,1636.3359 " fill="#E2E2F0" style="stroke:#181818;stroke-width:1.5;"/><path d="M911,1636.3359 C911,1646.3359 929,1646.3359 929,1646.3359 C929,1646.3359 947,1646.3359 947,1636.3359 " fill="none" style="stroke:#181818;stroke-width:1.5;"/><rect fill="#E2E2F0" height="30.2969" rx="2.5" ry="2.5" style="stroke:#181818;stroke-width:0.5;" width="144" x="975" y="87.2969"/><text fill="#000000" font-family="sans-serif" font-size="14" lengthAdjust="spacing" textLength="130" x="982" y="107.292">Notification Service</text><rect fill="#E2E2F0" height="30.2969" rx="2.5" ry="2.5" style="stroke:#181818;stroke-width:0.5;" width="144" x="975" y="1610.0391"/><text fill="#000000" font-family="sans-serif" font-size="14" lengthAdjust="spacing" textLength="130" x="982" y="1630.0342">Notification Service</text><rect fill="#FFFFFF" height="249.3281" style="stroke:#181818;stroke-width:1.0;" width="10" x="316" y="192.8594"/><rect fill="#FFFFFF" height="145.6641" style="stroke:#181818;stroke-width:1.0;" width="10" x="316" y="659.1172"/><rect fill="#FFFFFF" height="145.6641" style="stroke:#181818;stroke-width:1.0;" width="10" x="316" y="877.0469"/><rect fill="#FFFFFF" height="243.1953" style="stroke:#181818;stroke-width:1.0;" width="10" x="316" y="1094.9766"/><rect fill="#FFFFFF" height="1291.5156" style="stroke:#181818;stroke-width:1.0;" width="10" x="615" y="310.5234"/><rect fill="#FFFFFF" height="913.7891" style="stroke:#181818;stroke-width:1.0;" width="10" x="620" y="688.25"/><rect fill="#FFFFFF" height="695.8594" style="stroke:#181818;stroke-width:1.0;" width="10" x="625" y="906.1797"/><rect fill="#FFFFFF" height="477.9297" style="stroke:#181818;stroke-width:1.0;" width="10" x="630" y="1124.1094"/><rect fill="#FFFFFF" height="1247.25" style="stroke:#181818;stroke-width:1.0;" width="10" x="924" y="354.7891"/><rect fill="#FFFFFF" height="1059.4531" style="stroke:#181818;stroke-width:1.0;" width="10" x="929" y="542.5859"/><rect fill="#FFFFFF" height="884.6563" style="stroke:#181818;stroke-width:1.0;" width="10" x="934" y="717.3828"/><rect fill="#FFFFFF" height="666.7266" style="stroke:#181818;stroke-width:1.0;" width="10" x="939" y="935.3125"/><rect fill="#FFFFFF" height="448.7969" style="stroke:#181818;stroke-width:1.0;" width="10" x="944" y="1153.2422"/><rect fill="#FFFFFF" height="351.2656" style="stroke:#181818;stroke-width:1.0;" width="10" x="949" y="1250.7734"/><rect fill="#FFFFFF" height="96.3984" style="stroke:#181818;stroke-width:1.0;" width="10" x="1042" y="1505.6406"/><rect fill="#FFFFFF" height="38.1328" style="stroke:#181818;stroke-width:1.0;" width="10" x="1047" y="1563.9063"/><rect fill="#EEEEEE" height="3" style="stroke:#EEEEEE;stroke-width:1.0;" width="1124" x="0" y="149.1602"/><line style="stroke:#000000;stroke-width:1.0;" x1="0" x2="1124" y1="149.1602" y2="149.1602"/><line style="stroke:#000000;stroke-width:1.0;" x1="0" x2="1124" y1="152.1602" y2="152.1602"/><rect fill="#EEEEEE" height="23.1328" style="stroke:#000000;stroke-width:2.0;" width="179" x="472.5" y="138.5938"/><text fill="#000000" font-family="sans-serif" font-size="13" font-weight="bold" lengthAdjust="spacing" textLength="160" x="478.5" y="154.6606">DRIVER POSTS A RIDE</text><polygon fill="#181818" points="304,188.8594,314,192.8594,304,196.8594,308,192.8594" style="stroke:#181818;stroke-width:1.0;"/><line style="stroke:#181818;stroke-width:1.0;" x1="28" x2="310" y1="192.8594" y2="192.8594"/><text fill="#000000" font-family="sans-serif" font-size="13" font-weight="bold" lengthAdjust="spacing" textLength="9" x="35" y="187.7935">1</text><text fill="#000000" font-family="sans-serif" font-size="13" lengthAdjust="spacing" textLength="111" x="48" y="187.7935">Open “Post Ride”</text><polygon fill="#181818" points="39,217.9922,29,221.9922,39,225.9922,35,221.9922" style="stroke:#181818;stroke-width:1.0;"/><line style="stroke:#181818;stroke-width:1.0;" x1="33" x2="315" y1="221.9922" y2="221.9922"/><text fill="#000000" font-family="sans-serif" font-size="13" font-weight="bold" lengthAdjust="spacing" textLength="9" x="45" y="216.9263">2</text><text fill="#000000" font-family="sans-serif" font-size="13" lengthAdjust="spacing" textLength="80" x="58" y="216.9263">Display form</text><polygon fill="#181818" points="304,262.2578,314,266.2578,304,270.2578,308,266.2578" style="stroke:#181818;stroke-width:1.0;"/><line style="stroke:#181818;stroke-width:1.0;" x1="28" x2="310" y1="266.2578" y2="266.2578"/><text fill="#000000" font-family="sans-serif" font-size="13" font-weight="bold" lengthAdjust="spacing" textLength="9" x="35" y="253.6255">3</text><text fill="#000000" font-family="sans-serif" font-size="13" lengthAdjust="spacing" textLength="108" x="48" y="246.0591">Enter ride details</text><text fill="#000000" font-family="sans-serif" font-size="13" lengthAdjust="spacing" textLength="235" x="48" y="261.1919">(route, date, time, seats, car details)</text><polygon fill="#181818" points="603,306.5234,613,310.5234,603,314.5234,607,310.5234" style="stroke:#181818;stroke-width:1.0;"/><line style="stroke:#181818;stroke-width:1.0;" x1="326" x2="609" y1="310.5234" y2="310.5234"/><text fill="#000000" font-family="sans-serif" font-size="13" font-weight="bold" lengthAdjust="spacing" textLength="9" x="333" y="297.8911">4</text><text fill="#000000" font-family="sans-serif" font-size="13" lengthAdjust="spacing" textLength="125" x="346" y="290.3247">Submit ride posting</text><text fill="#000000" font-family="sans-serif" font-size="13" lengthAdjust="spacing" textLength="96" x="346" y="305.4575">(validate input)</text><polygon fill="#181818" points="912,350.7891,922,354.7891,912,358.7891,916,354.7891" style="stroke:#181818;stroke-width:1.0;"/><line style="stroke:#181818;stroke-width:1.0;" x1="625" x2="918" y1="354.7891" y2="354.7891"/><text fill="#000000" font-family="sans-serif" font-size="13" font-weight="bold" lengthAdjust="spacing" textLength="9" x="632" y="342.1567">5</text><text fill="#000000" font-family="sans-serif" font-size="13" lengthAdjust="spacing" textLength="102" x="645" y="334.5903">INSERT new ride</text><text fill="#000000" font-family="sans-serif" font-size="13" lengthAdjust="spacing" textLength="99" x="645" y="349.7231">(create Ride ID)</text><polygon fill="#181818" points="636,379.9219,626,383.9219,636,387.9219,632,383.9219" style="stroke:#181818;stroke-width:1.0;"/><line style="stroke:#181818;stroke-width:1.0;stroke-dasharray:2.0,2.0;" x1="630" x2="923" y1="383.9219" y2="383.9219"/><text fill="#000000" font-family="sans-serif" font-size="13" font-weight="bold" lengthAdjust="spacing" textLength="9" x="642" y="378.856">6</text><text fill="#000000" font-family="sans-serif" font-size="13" lengthAdjust="spacing" textLength="80" x="655" y="378.856">Ride created</text><polygon fill="#181818" points="337,409.0547,327,413.0547,337,417.0547,333,413.0547" style="stroke:#181818;stroke-width:1.0;"/><line style="stroke:#181818;stroke-width:1.0;stroke-dasharray:2.0,2.0;" x1="331" x2="614" y1="413.0547" y2="413.0547"/><text fill="#000000" font-family="sans-serif" font-size="13" font-weight="bold" lengthAdjust="spacing" textLength="9" x="343" y="407.9888">7</text><text fill="#000000" font-family="sans-serif" font-size="13" lengthAdjust="spacing" textLength="83" x="356" y="407.9888">Post success</text><polygon fill="#181818" points="39,438.1875,29,442.1875,39,446.1875,35,442.1875" style="stroke:#181818;stroke-width:1.0;"/><line style="stroke:#181818;stroke-width:1.0;stroke-dasharray:2.0,2.0;" x1="33" x2="320" y1="442.1875" y2="442.1875"/><text fill="#000000" font-family="sans-serif" font-size="13" font-weight="bold" lengthAdjust="spacing" textLength="9" x="45" y="437.1216">8</text><text fill="#000000" font-family="sans-serif" font-size="13" lengthAdjust="spacing" textLength="145" x="58" y="437.1216">Confirmation message</text><line style="stroke:#181818;stroke-width:1.0;stroke-dasharray:2.0,2.0;" x1="321" x2="363" y1="471.3203" y2="471.3203"/><line style="stroke:#181818;stroke-width:1.0;stroke-dasharray:2.0,2.0;" x1="363" x2="363" y1="471.3203" y2="484.3203"/><line style="stroke:#181818;stroke-width:1.0;stroke-dasharray:2.0,2.0;" x1="322" x2="363" y1="484.3203" y2="484.3203"/><line style="stroke:#181818;stroke-width:1.0;" x1="322" x2="332" y1="484.3203" y2="480.3203"/><line style="stroke:#181818;stroke-width:1.0;" x1="322" x2="332" y1="484.3203" y2="488.3203"/><text fill="#000000" font-family="sans-serif" font-size="13" font-weight="bold" lengthAdjust="spacing" textLength="9" x="328" y="466.2544">9</text><text fill="#000000" font-family="sans-serif" font-size="13" lengthAdjust="spacing" textLength="141" x="341" y="466.2544">Update driver UI state</text><polygon fill="#181818" points="309,509.4531,319,513.4531,309,517.4531,313,513.4531" style="stroke:#181818;stroke-width:1.0;"/><line style="stroke:#181818;stroke-width:1.0;stroke-dasharray:2.0,2.0;" x1="28" x2="315" y1="513.4531" y2="513.4531"/><text fill="#000000" font-family="sans-serif" font-size="13" font-weight="bold" lengthAdjust="spacing" textLength="18" x="35" y="508.3872">10</text><text fill="#000000" font-family="sans-serif" font-size="13" lengthAdjust="spacing" textLength="83" x="57" y="508.3872">Acknowledge</text><polygon fill="#181818" points="917,538.5859,927,542.5859,917,546.5859,921,542.5859" style="stroke:#181818;stroke-width:1.0;"/><line style="stroke:#181818;stroke-width:1.0;" x1="625" x2="923" y1="542.5859" y2="542.5859"/><text fill="#000000" font-family="sans-serif" font-size="13" font-weight="bold" lengthAdjust="spacing" textLength="18" x="632" y="537.52">11</text><text fill="#000000" font-family="sans-serif" font-size="13" lengthAdjust="spacing" textLength="187" x="654" y="537.52">Update active driver postings</text><polygon fill="#181818" points="636,567.7188,626,571.7188,636,575.7188,632,571.7188" style="stroke:#181818;stroke-width:1.0;"/><line style="stroke:#181818;stroke-width:1.0;stroke-dasharray:2.0,2.0;" x1="630" x2="928" y1="571.7188" y2="571.7188"/><text fill="#000000" font-family="sans-serif" font-size="13" font-weight="bold" lengthAdjust="spacing" textLength="18" x="642" y="566.6528">12</text><text fill="#000000" font-family="sans-serif" font-size="13" lengthAdjust="spacing" textLength="18" x="664" y="566.6528">OK</text><rect fill="#EEEEEE" height="3" style="stroke:#EEEEEE;stroke-width:1.0;" width="1124" x="0" y="600.2852"/><line style="stroke:#000000;stroke-width:1.0;" x1="0" x2="1124" y1="600.2852" y2="600.2852"/><line style="stroke:#000000;stroke-width:1.0;" x1="0" x2="1124" y1="603.2852" y2="603.2852"/><rect fill="#EEEEEE" height="23.1328" style="stroke:#000000;stroke-width:2.0;" width="234" x="445" y="589.7188"/><text fill="#000000" font-family="sans-serif" font-size="13" font-weight="bold" lengthAdjust="spacing" textLength="215" x="451" y="605.7856">RIDER SEARCHES FOR A RIDE</text><polygon fill="#181818" points="304,655.1172,314,659.1172,304,663.1172,308,659.1172" style="stroke:#181818;stroke-width:1.0;"/><line style="stroke:#181818;stroke-width:1.0;" x1="82" x2="310" y1="659.1172" y2="659.1172"/><text fill="#000000" font-family="sans-serif" font-size="13" font-weight="bold" lengthAdjust="spacing" textLength="18" x="89" y="646.4849">13</text><text fill="#000000" font-family="sans-serif" font-size="13" lengthAdjust="spacing" textLength="94" x="111" y="638.9185">Search for ride</text><text fill="#000000" font-family="sans-serif" font-size="13" lengthAdjust="spacing" textLength="193" x="111" y="654.0513">(criteria: pickup, dropoff, time)</text><polygon fill="#181818" points="608,684.25,618,688.25,608,692.25,612,688.25" style="stroke:#181818;stroke-width:1.0;"/><line style="stroke:#181818;stroke-width:1.0;" x1="326" x2="614" y1="688.25" y2="688.25"/><text fill="#000000" font-family="sans-serif" font-size="13" font-weight="bold" lengthAdjust="spacing" textLength="18" x="333" y="683.1841">14</text><text fill="#000000" font-family="sans-serif" font-size="13" lengthAdjust="spacing" textLength="137" x="355" y="683.1841">Forward search query</text><polygon fill="#181818" points="922,713.3828,932,717.3828,922,721.3828,926,717.3828" style="stroke:#181818;stroke-width:1.0;"/><line style="stroke:#181818;stroke-width:1.0;" x1="630" x2="928" y1="717.3828" y2="717.3828"/><text fill="#000000" font-family="sans-serif" font-size="13" font-weight="bold" lengthAdjust="spacing" textLength="18" x="637" y="712.3169">15</text><text fill="#000000" font-family="sans-serif" font-size="13" lengthAdjust="spacing" textLength="147" x="659" y="712.3169">SELECT matching rides</text><polygon fill="#181818" points="641,742.5156,631,746.5156,641,750.5156,637,746.5156" style="stroke:#181818;stroke-width:1.0;"/><line style="stroke:#181818;stroke-width:1.0;stroke-dasharray:2.0,2.0;" x1="635" x2="933" y1="746.5156" y2="746.5156"/><text fill="#000000" font-family="sans-serif" font-size="13" font-weight="bold" lengthAdjust="spacing" textLength="18" x="647" y="741.4497">16</text><text fill="#000000" font-family="sans-serif" font-size="13" lengthAdjust="spacing" textLength="89" x="669" y="741.4497">Ride list result</text><polygon fill="#181818" points="337,771.6484,327,775.6484,337,779.6484,333,775.6484" style="stroke:#181818;stroke-width:1.0;"/><line style="stroke:#181818;stroke-width:1.0;stroke-dasharray:2.0,2.0;" x1="331" x2="619" y1="775.6484" y2="775.6484"/><text fill="#000000" font-family="sans-serif" font-size="13" font-weight="bold" lengthAdjust="spacing" textLength="18" x="343" y="770.5825">17</text><text fill="#000000" font-family="sans-serif" font-size="13" lengthAdjust="spacing" textLength="92" x="365" y="770.5825">Return ride list</text><polygon fill="#181818" points="93,800.7813,83,804.7813,93,808.7813,89,804.7813" style="stroke:#181818;stroke-width:1.0;"/><line style="stroke:#181818;stroke-width:1.0;stroke-dasharray:2.0,2.0;" x1="87" x2="320" y1="804.7813" y2="804.7813"/><text fill="#000000" font-family="sans-serif" font-size="13" font-weight="bold" lengthAdjust="spacing" textLength="18" x="99" y="799.7153">18</text><text fill="#000000" font-family="sans-serif" font-size="13" lengthAdjust="spacing" textLength="141" x="121" y="799.7153">Display available rides</text><rect fill="#EEEEEE" height="3" style="stroke:#EEEEEE;stroke-width:1.0;" width="1124" x="0" y="833.3477"/><line style="stroke:#000000;stroke-width:1.0;" x1="0" x2="1124" y1="833.3477" y2="833.3477"/><line style="stroke:#000000;stroke-width:1.0;" x1="0" x2="1124" y1="836.3477" y2="836.3477"/><rect fill="#EEEEEE" height="23.1328" style="stroke:#000000;stroke-width:2.0;" width="283" x="420.5" y="822.7813"/><text fill="#000000" font-family="sans-serif" font-size="13" font-weight="bold" lengthAdjust="spacing" textLength="264" x="426.5" y="838.8481">RIDER VIEWS RIDE DETAILS &amp; SEATS</text><polygon fill="#181818" points="304,873.0469,314,877.0469,304,881.0469,308,877.0469" style="stroke:#181818;stroke-width:1.0;"/><line style="stroke:#181818;stroke-width:1.0;" x1="82" x2="310" y1="877.0469" y2="877.0469"/><text fill="#000000" font-family="sans-serif" font-size="13" font-weight="bold" lengthAdjust="spacing" textLength="18" x="89" y="871.981">19</text><text fill="#000000" font-family="sans-serif" font-size="13" lengthAdjust="spacing" textLength="68" x="111" y="871.981">Select ride</text><polygon fill="#181818" points="613,902.1797,623,906.1797,613,910.1797,617,906.1797" style="stroke:#181818;stroke-width:1.0;"/><line style="stroke:#181818;stroke-width:1.0;" x1="326" x2="619" y1="906.1797" y2="906.1797"/><text fill="#000000" font-family="sans-serif" font-size="13" font-weight="bold" lengthAdjust="spacing" textLength="18" x="333" y="901.1138">20</text><text fill="#000000" font-family="sans-serif" font-size="13" lengthAdjust="spacing" textLength="154" x="355" y="901.1138">Request seat availability</text><polygon fill="#181818" points="927,931.3125,937,935.3125,927,939.3125,931,935.3125" style="stroke:#181818;stroke-width:1.0;"/><line style="stroke:#181818;stroke-width:1.0;" x1="635" x2="933" y1="935.3125" y2="935.3125"/><text fill="#000000" font-family="sans-serif" font-size="13" font-weight="bold" lengthAdjust="spacing" textLength="18" x="642" y="930.2466">21</text><text fill="#000000" font-family="sans-serif" font-size="13" lengthAdjust="spacing" textLength="126" x="664" y="930.2466">Query seats for ride</text><polygon fill="#181818" points="646,960.4453,636,964.4453,646,968.4453,642,964.4453" style="stroke:#181818;stroke-width:1.0;"/><line style="stroke:#181818;stroke-width:1.0;stroke-dasharray:2.0,2.0;" x1="640" x2="938" y1="964.4453" y2="964.4453"/><text fill="#000000" font-family="sans-serif" font-size="13" font-weight="bold" lengthAdjust="spacing" textLength="18" x="652" y="959.3794">22</text><text fill="#000000" font-family="sans-serif" font-size="13" lengthAdjust="spacing" textLength="105" x="674" y="959.3794">Seats remaining</text><polygon fill="#181818" points="337,989.5781,327,993.5781,337,997.5781,333,993.5781" style="stroke:#181818;stroke-width:1.0;"/><line style="stroke:#181818;stroke-width:1.0;stroke-dasharray:2.0,2.0;" x1="331" x2="624" y1="993.5781" y2="993.5781"/><text fill="#000000" font-family="sans-serif" font-size="13" font-weight="bold" lengthAdjust="spacing" textLength="18" x="343" y="988.5122">23</text><text fill="#000000" font-family="sans-serif" font-size="13" lengthAdjust="spacing" textLength="100" x="365" y="988.5122">Seat availability</text><polygon fill="#181818" points="93,1018.7109,83,1022.7109,93,1026.7109,89,1022.7109" style="stroke:#181818;stroke-width:1.0;"/><line style="stroke:#181818;stroke-width:1.0;stroke-dasharray:2.0,2.0;" x1="87" x2="320" y1="1022.7109" y2="1022.7109"/><text fill="#000000" font-family="sans-serif" font-size="13" font-weight="bold" lengthAdjust="spacing" textLength="18" x="99" y="1017.645">24</text><text fill="#000000" font-family="sans-serif" font-size="13" lengthAdjust="spacing" textLength="73" x="121" y="1017.645">Show seats</text><rect fill="#EEEEEE" height="3" style="stroke:#EEEEEE;stroke-width:1.0;" width="1124" x="0" y="1051.2773"/><line style="stroke:#000000;stroke-width:1.0;" x1="0" x2="1124" y1="1051.2773" y2="1051.2773"/><line style="stroke:#000000;stroke-width:1.0;" x1="0" x2="1124" y1="1054.2773" y2="1054.2773"/><rect fill="#EEEEEE" height="23.1328" style="stroke:#000000;stroke-width:2.0;" width="175" x="474.5" y="1040.7109"/><text fill="#000000" font-family="sans-serif" font-size="13" font-weight="bold" lengthAdjust="spacing" textLength="156" x="480.5" y="1056.7778">RIDER BOOKS A SEAT</text><polygon fill="#181818" points="304,1090.9766,314,1094.9766,304,1098.9766,308,1094.9766" style="stroke:#181818;stroke-width:1.0;"/><line style="stroke:#181818;stroke-width:1.0;" x1="82" x2="310" y1="1094.9766" y2="1094.9766"/><text fill="#000000" font-family="sans-serif" font-size="13" font-weight="bold" lengthAdjust="spacing" textLength="18" x="89" y="1089.9106">25</text><text fill="#000000" font-family="sans-serif" font-size="13" lengthAdjust="spacing" textLength="64" x="111" y="1089.9106">Book seat</text><polygon fill="#181818" points="618,1120.1094,628,1124.1094,618,1128.1094,622,1124.1094" style="stroke:#181818;stroke-width:1.0;"/><line style="stroke:#181818;stroke-width:1.0;" x1="326" x2="624" y1="1124.1094" y2="1124.1094"/><text fill="#000000" font-family="sans-serif" font-size="13" font-weight="bold" lengthAdjust="spacing" textLength="18" x="333" y="1119.0435">26</text><text fill="#000000" font-family="sans-serif" font-size="13" lengthAdjust="spacing" textLength="243" x="355" y="1119.0435">Booking request (rideID, passengerID)</text><polygon fill="#181818" points="932,1149.2422,942,1153.2422,932,1157.2422,936,1153.2422" style="stroke:#181818;stroke-width:1.0;"/><line style="stroke:#181818;stroke-width:1.0;" x1="640" x2="938" y1="1153.2422" y2="1153.2422"/><text fill="#000000" font-family="sans-serif" font-size="13" font-weight="bold" lengthAdjust="spacing" textLength="18" x="647" y="1148.1763">27</text><text fill="#000000" font-family="sans-serif" font-size="13" lengthAdjust="spacing" textLength="141" x="669" y="1148.1763">Check seat availability</text><polygon fill="#181818" points="651,1178.375,641,1182.375,651,1186.375,647,1182.375" style="stroke:#181818;stroke-width:1.0;"/><line style="stroke:#181818;stroke-width:1.0;stroke-dasharray:2.0,2.0;" x1="645" x2="943" y1="1182.375" y2="1182.375"/><text fill="#000000" font-family="sans-serif" font-size="13" font-weight="bold" lengthAdjust="spacing" textLength="18" x="657" y="1177.3091">28</text><text fill="#000000" font-family="sans-serif" font-size="13" lengthAdjust="spacing" textLength="143" x="679" y="1177.3091">seat_available = TRUE</text><path d="M51,1197.375 L115,1197.375 L115,1204.5078 L105,1214.5078 L51,1214.5078 L51,1197.375 " fill="#EEEEEE" style="stroke:#000000;stroke-width:1.5;"/><rect fill="none" height="237" style="stroke:#000000;stroke-width:1.5;" width="924" x="51" y="1197.375"/><text fill="#000000" font-family="sans-serif" font-size="13" font-weight="bold" lengthAdjust="spacing" textLength="19" x="66" y="1210.4419">alt</text><text fill="#000000" font-family="sans-serif" font-size="11" font-weight="bold" lengthAdjust="spacing" textLength="102" x="130" y="1209.5854">[Seat Available]</text><polygon fill="#181818" points="937,1246.7734,947,1250.7734,937,1254.7734,941,1250.7734" style="stroke:#181818;stroke-width:1.0;"/><line style="stroke:#181818;stroke-width:1.0;" x1="640" x2="943" y1="1250.7734" y2="1250.7734"/><text fill="#000000" font-family="sans-serif" font-size="13" font-weight="bold" lengthAdjust="spacing" textLength="18" x="647" y="1238.1411">29</text><text fill="#000000" font-family="sans-serif" font-size="13" lengthAdjust="spacing" textLength="99" x="669" y="1230.5747">INSERT booking</text><text fill="#000000" font-family="sans-serif" font-size="13" lengthAdjust="spacing" textLength="238" x="669" y="1245.7075">UPDATE seat_count = seat_count - 1</text><polygon fill="#181818" points="651,1275.9063,641,1279.9063,651,1283.9063,647,1279.9063" style="stroke:#181818;stroke-width:1.0;"/><line style="stroke:#181818;stroke-width:1.0;stroke-dasharray:2.0,2.0;" x1="645" x2="948" y1="1279.9063" y2="1279.9063"/><text fill="#000000" font-family="sans-serif" font-size="13" font-weight="bold" lengthAdjust="spacing" textLength="18" x="657" y="1274.8403">30</text><text fill="#000000" font-family="sans-serif" font-size="13" lengthAdjust="spacing" textLength="93" x="679" y="1274.8403">Booking saved</text><polygon fill="#181818" points="337,1305.0391,327,1309.0391,337,1313.0391,333,1309.0391" style="stroke:#181818;stroke-width:1.0;"/><line style="stroke:#181818;stroke-width:1.0;stroke-dasharray:2.0,2.0;" x1="331" x2="629" y1="1309.0391" y2="1309.0391"/><text fill="#000000" font-family="sans-serif" font-size="13" font-weight="bold" lengthAdjust="spacing" textLength="18" x="343" y="1303.9731">31</text><text fill="#000000" font-family="sans-serif" font-size="13" lengthAdjust="spacing" textLength="119" x="365" y="1303.9731">Booking confirmed</text><polygon fill="#181818" points="93,1334.1719,83,1338.1719,93,1342.1719,89,1338.1719" style="stroke:#181818;stroke-width:1.0;"/><line style="stroke:#181818;stroke-width:1.0;stroke-dasharray:2.0,2.0;" x1="87" x2="320" y1="1338.1719" y2="1338.1719"/><text fill="#000000" font-family="sans-serif" font-size="13" font-weight="bold" lengthAdjust="spacing" textLength="18" x="99" y="1333.106">32</text><text fill="#000000" font-family="sans-serif" font-size="13" lengthAdjust="spacing" textLength="172" x="121" y="1333.106">Show booking confirmation</text><line style="stroke:#000000;stroke-width:1.0;stroke-dasharray:2.0,2.0;" x1="51" x2="975" y1="1347.1719" y2="1347.1719"/><text fill="#000000" font-family="sans-serif" font-size="11" font-weight="bold" lengthAdjust="spacing" textLength="128" x="56" y="1357.3823">[Seat Not Available]</text><polygon fill="#181818" points="332,1393.2422,322,1397.2422,332,1401.2422,328,1397.2422" style="stroke:#181818;stroke-width:1.0;"/><line style="stroke:#181818;stroke-width:1.0;stroke-dasharray:2.0,2.0;" x1="326" x2="629" y1="1397.2422" y2="1397.2422"/><text fill="#000000" font-family="sans-serif" font-size="13" font-weight="bold" lengthAdjust="spacing" textLength="18" x="338" y="1384.6099">33</text><text fill="#000000" font-family="sans-serif" font-size="13" lengthAdjust="spacing" textLength="89" x="360" y="1377.0435">Booking failed</text><text fill="#000000" font-family="sans-serif" font-size="13" lengthAdjust="spacing" textLength="91" x="360" y="1392.1763">(No seats left)</text><polygon fill="#181818" points="93,1422.375,83,1426.375,93,1430.375,89,1426.375" style="stroke:#181818;stroke-width:1.0;"/><line style="stroke:#181818;stroke-width:1.0;stroke-dasharray:2.0,2.0;" x1="87" x2="320" y1="1426.375" y2="1426.375"/><text fill="#000000" font-family="sans-serif" font-size="13" font-weight="bold" lengthAdjust="spacing" textLength="18" x="99" y="1421.3091">34</text><text fill="#000000" font-family="sans-serif" font-size="13" lengthAdjust="spacing" textLength="81" x="121" y="1421.3091">Display error</text><rect fill="#EEEEEE" height="3" style="stroke:#EEEEEE;stroke-width:1.0;" width="1124" x="0" y="1461.9414"/><line style="stroke:#000000;stroke-width:1.0;" x1="0" x2="1124" y1="1461.9414" y2="1461.9414"/><line style="stroke:#000000;stroke-width:1.0;" x1="0" x2="1124" y1="1464.9414" y2="1464.9414"/><rect fill="#EEEEEE" height="23.1328" style="stroke:#000000;stroke-width:2.0;" width="129" x="497.5" y="1451.375"/><text fill="#000000" font-family="sans-serif" font-size="13" font-weight="bold" lengthAdjust="spacing" textLength="110" x="503.5" y="1467.4419">NOTIFICATIONS</text><polygon fill="#181818" points="1030,1501.6406,1040,1505.6406,1030,1509.6406,1034,1505.6406" style="stroke:#181818;stroke-width:1.0;"/><line style="stroke:#181818;stroke-width:1.0;" x1="640" x2="1036" y1="1505.6406" y2="1505.6406"/><text fill="#000000" font-family="sans-serif" font-size="13" font-weight="bold" lengthAdjust="spacing" textLength="18" x="647" y="1500.5747">35</text><text fill="#000000" font-family="sans-serif" font-size="13" lengthAdjust="spacing" textLength="170" x="669" y="1500.5747">Notify driver (new booking)</text><polygon fill="#181818" points="39,1530.7734,29,1534.7734,39,1538.7734,35,1534.7734" style="stroke:#181818;stroke-width:1.0;"/><line style="stroke:#181818;stroke-width:1.0;stroke-dasharray:2.0,2.0;" x1="33" x2="1041" y1="1534.7734" y2="1534.7734"/><text fill="#000000" font-family="sans-serif" font-size="13" font-weight="bold" lengthAdjust="spacing" textLength="18" x="45" y="1529.7075">36</text><text fill="#000000" font-family="sans-serif" font-size="13" lengthAdjust="spacing" textLength="105" x="67" y="1529.7075">Push notification</text><polygon fill="#181818" points="1035,1559.9063,1045,1563.9063,1035,1567.9063,1039,1563.9063" style="stroke:#181818;stroke-width:1.0;"/><line style="stroke:#181818;stroke-width:1.0;" x1="640" x2="1041" y1="1563.9063" y2="1563.9063"/><text fill="#000000" font-family="sans-serif" font-size="13" font-weight="bold" lengthAdjust="spacing" textLength="18" x="647" y="1558.8403">37</text><text fill="#000000" font-family="sans-serif" font-size="13" lengthAdjust="spacing" textLength="164" x="669" y="1558.8403">Notify rider (confirmation)</text><polygon fill="#181818" points="93,1589.0391,83,1593.0391,93,1597.0391,89,1593.0391" style="stroke:#181818;stroke-width:1.0;"/><line style="stroke:#181818;stroke-width:1.0;stroke-dasharray:2.0,2.0;" x1="87" x2="1046" y1="1593.0391" y2="1593.0391"/><text fill="#000000" font-family="sans-serif" font-size="13" font-weight="bold" lengthAdjust="spacing" textLength="18" x="99" y="1587.9731">38</text><text fill="#000000" font-family="sans-serif" font-size="13" lengthAdjust="spacing" textLength="105" x="121" y="1587.9731">Push notification</text><!--MD5=[ee2609a5fe9f5dccd81e585a7ba8cdbb]
@startuml
autonumber

actor Driver
actor Rider

participant "UniRide App (UI)" as UI
participant "Backend Server" as Server
database "Database" as DB
participant "Notification Service" as Notif

title UniRide Core Flow - Post Ride ➝ Book Seat

== DRIVER POSTS A RIDE ==

Driver -> UI ++ : Open “Post Ride”
UI -> Driver : Display form

Driver -> UI : Enter ride details\n(route, date, time, seats, car details)
UI -> Server ++ : Submit ride posting\n(validate input)
Server -> DB ++ : INSERT new ride\n(create Ride ID)
DB - -> Server : Ride created
Server - -> UI : Post success
UI - -> Driver - - : Confirmation message
UI - ->> UI : Update driver UI state
UI <- - Driver : Acknowledge

Server -> DB ++ : Update active driver postings
DB - -> Server : OK

== RIDER SEARCHES FOR A RIDE ==

Rider -> UI ++ : Search for ride\n(criteria: pickup, dropoff, time)
UI -> Server ++ : Forward search query
Server -> DB ++ : SELECT matching rides
DB - -> Server : Ride list result
Server - -> UI : Return ride list
UI - -> Rider - - : Display available rides

== RIDER VIEWS RIDE DETAILS & SEATS ==

Rider -> UI ++ : Select ride
UI -> Server ++ : Request seat availability
Server -> DB ++ : Query seats for ride
DB - -> Server : Seats remaining
Server - -> UI : Seat availability
UI - -> Rider - - : Show seats

== RIDER BOOKS A SEAT ==

Rider -> UI ++ : Book seat
UI -> Server ++ : Booking request (rideID, passengerID)
Server -> DB ++ : Check seat availability
DB - -> Server : seat_available = TRUE

alt Seat Available
    Server -> DB ++ : INSERT booking\nUPDATE seat_count = seat_count - 1
    DB - -> Server : Booking saved
    Server - -> UI : Booking confirmed
    UI - -> Rider - - : Show booking confirmation
else Seat Not Available
    Server - -> UI : Booking failed\n(No seats left)
    UI - -> Rider : Display error
end

== NOTIFICATIONS ==

Server -> Notif ++ : Notify driver (new booking)
Notif - -> Driver : Push notification

Server -> Notif ++ : Notify rider (confirmation)
Notif - -> Rider : Push notification
@enduml

PlantUML version 1.2022.7(Mon Aug 22 17:01:30 UTC 2022)
(GPL source distribution)
Java Runtime: OpenJDK Runtime Environment
JVM: OpenJDK 64-Bit Server VM
Default Encoding: UTF-8
Language: en
Country: null
--></g></svg>